<svg xmlns="http://www.w3.org/2000/svg" xmlns:xlink="http://www.w3.org/1999/xlink" width="1080" zoomAndPan="magnify" viewBox="0 0 810 809.999993" height="1080" preserveAspectRatio="xMidYMid meet" version="1.0"><defs><g/></defs><g fill="#eadecb" fill-opacity="0.4"><g transform="translate(59.725452, 642.539887)"><g><path d="M 30.421875 0 L 30.421875 -472.078125 L 234.203125 -472.078125 C 269.234375 -472.078125 299.882812 -465.695312 326.15625 -452.9375 C 352.4375 -440.1875 372.875 -421.820312 387.46875 -397.84375 C 402.070312 -373.875 409.375 -345.140625 409.375 -311.640625 C 409.375 -277.835938 401.882812 -249.332031 386.90625 -226.125 C 371.925781 -202.925781 350.953125 -185.410156 323.984375 -173.578125 C 297.015625 -161.742188 265.546875 -155.828125 229.578125 -155.828125 L 107.875 -155.828125 L 107.875 -255.40625 L 203.765625 -255.40625 C 218.828125 -255.40625 231.695312 -257.285156 242.375 -261.046875 C 253.0625 -264.816406 261.285156 -270.847656 267.046875 -279.140625 C 272.804688 -287.441406 275.6875 -298.273438 275.6875 -311.640625 C 275.6875 -325.171875 272.804688 -336.195312 267.046875 -344.71875 C 261.285156 -353.25 253.0625 -359.550781 242.375 -363.625 C 231.695312 -367.695312 218.828125 -369.734375 203.765625 -369.734375 L 158.59375 -369.734375 L 158.59375 0 Z M 307.03125 -216.671875 L 425.0625 0 L 285.828125 0 L 170.578125 -216.671875 Z M 307.03125 -216.671875 "/></g></g></g><g fill="#eadecb" fill-opacity="0.4"><g transform="translate(493.075967, 642.539887)"><g><path d="M 25.8125 -236.046875 L 25.8125 -296.890625 L 141.078125 -382.640625 C 148.140625 -387.867188 154.515625 -392.75 160.203125 -397.28125 C 165.890625 -401.8125 170.421875 -406.570312 173.796875 -411.5625 C 177.179688 -416.5625 178.875 -422.289062 178.875 -428.75 C 178.875 -437.96875 174.878906 -444.878906 166.890625 -449.484375 C 158.898438 -454.097656 149.367188 -456.40625 138.296875 -456.40625 C 126.316406 -456.40625 116.710938 -453.753906 109.484375 -448.453125 C 102.265625 -443.148438 98.65625 -434.738281 98.65625 -423.21875 L 17.515625 -423.21875 C 17.515625 -455.019531 28.925781 -479.566406 51.75 -496.859375 C 74.570312 -514.148438 103.734375 -522.796875 139.234375 -522.796875 C 163.816406 -522.796875 185.054688 -518.609375 202.953125 -510.234375 C 220.859375 -501.859375 234.691406 -490.640625 244.453125 -476.578125 C 254.210938 -462.515625 259.09375 -446.878906 259.09375 -429.671875 C 259.09375 -415.523438 256.132812 -402.382812 250.21875 -390.25 C 244.300781 -378.113281 235.234375 -366.585938 223.015625 -355.671875 C 210.796875 -344.765625 195.160156 -334.082031 176.109375 -323.625 L 147.53125 -307.953125 L 147.53125 -305.1875 L 259.09375 -305.1875 L 259.09375 -236.046875 Z M 25.8125 -236.046875 "/></g></g></g><g fill="#eadecb" fill-opacity="1"><g transform="translate(49.971987, 632.786423)"><g><path d="M 30.421875 0 L 30.421875 -472.078125 L 234.203125 -472.078125 C 269.234375 -472.078125 299.882812 -465.695312 326.15625 -452.9375 C 352.4375 -440.1875 372.875 -421.820312 387.46875 -397.84375 C 402.070312 -373.875 409.375 -345.140625 409.375 -311.640625 C 409.375 -277.835938 401.882812 -249.332031 386.90625 -226.125 C 371.925781 -202.925781 350.953125 -185.410156 323.984375 -173.578125 C 297.015625 -161.742188 265.546875 -155.828125 229.578125 -155.828125 L 107.875 -155.828125 L 107.875 -255.40625 L 203.765625 -255.40625 C 218.828125 -255.40625 231.695312 -257.285156 242.375 -261.046875 C 253.0625 -264.816406 261.285156 -270.847656 267.046875 -279.140625 C 272.804688 -287.441406 275.6875 -298.273438 275.6875 -311.640625 C 275.6875 -325.171875 272.804688 -336.195312 267.046875 -344.71875 C 261.285156 -353.25 253.0625 -359.550781 242.375 -363.625 C 231.695312 -367.695312 218.828125 -369.734375 203.765625 -369.734375 L 158.59375 -369.734375 L 158.59375 0 Z M 307.03125 -216.671875 L 425.0625 0 L 285.828125 0 L 170.578125 -216.671875 Z M 307.03125 -216.671875 "/></g></g></g><g fill="#eadecb" fill-opacity="1"><g transform="translate(483.322502, 632.786423)"><g><path d="M 25.8125 -236.046875 L 25.8125 -296.890625 L 141.078125 -382.640625 C 148.140625 -387.867188 154.515625 -392.75 160.203125 -397.28125 C 165.890625 -401.8125 170.421875 -406.570312 173.796875 -411.5625 C 177.179688 -416.5625 178.875 -422.289062 178.875 -428.75 C 178.875 -437.96875 174.878906 -444.878906 166.890625 -449.484375 C 158.898438 -454.097656 149.367188 -456.40625 138.296875 -456.40625 C 126.316406 -456.40625 116.710938 -453.753906 109.484375 -448.453125 C 102.265625 -443.148438 98.65625 -434.738281 98.65625 -423.21875 L 17.515625 -423.21875 C 17.515625 -455.019531 28.925781 -479.566406 51.75 -496.859375 C 74.570312 -514.148438 103.734375 -522.796875 139.234375 -522.796875 C 163.816406 -522.796875 185.054688 -518.609375 202.953125 -510.234375 C 220.859375 -501.859375 234.691406 -490.640625 244.453125 -476.578125 C 254.210938 -462.515625 259.09375 -446.878906 259.09375 -429.671875 C 259.09375 -415.523438 256.132812 -402.382812 250.21875 -390.25 C 244.300781 -378.113281 235.234375 -366.585938 223.015625 -355.671875 C 210.796875 -344.765625 195.160156 -334.082031 176.109375 -323.625 L 147.53125 -307.953125 L 147.53125 -305.1875 L 259.09375 -305.1875 L 259.09375 -236.046875 Z M 25.8125 -236.046875 "/></g></g></g></svg>